<svg width="48" height="52" viewBox="0 0 48 52" xmlns="http://www.w3.org/2000/svg">
  <defs>
    <filter id="rare-glow" x="-60%" y="-60%" width="220%" height="220%">
      <feGaussianBlur stdDeviation="4" result="blur"/>
      <feComposite in="SourceGraphic" in2="blur" operator="over"/>
    </filter>
    <radialGradient id="coin-rare" cx="35%" cy="30%" r="65%">
      <stop offset="0%" stop-color="#FFFFFF"/>
      <stop offset="20%" stop-color="#CCFFEE"/>
      <stop offset="60%" stop-color="#00FFAA"/>
      <stop offset="100%" stop-color="#006644"/>
    </radialGradient>
  </defs>
  <g transform="translate(4, 4)">
    <circle cx="20" cy="20" r="22" fill="none" stroke="#00FFAA" stroke-width="1" opacity="0.25" filter="url(#rare-glow)"/>
    <ellipse cx="20" cy="22" rx="18" ry="18" fill="#006644" opacity="0.5"/>
    <circle cx="20" cy="20" r="18" fill="url(#coin-rare)" filter="url(#rare-glow)"/>
    <circle cx="20" cy="20" r="18" fill="none" stroke="#00FFAA" stroke-width="2" opacity="0.9" stroke-dasharray="4 3"/>
    <circle cx="20" cy="20" r="13" fill="none" stroke="#00FFAA" stroke-width="0.8" opacity="0.6"/>
    <path d="M20 8 L28 16 L20 30 L12 16 Z" fill="#00FFAA" opacity="0.8" filter="url(#rare-glow)"/>
    <path d="M12 16 L20 13 L28 16" fill="#FFFFFF" opacity="0.5"/>
    <path d="M38 10 L40 8 L38 12 L36 10 Z" fill="#00FFAA" filter="url(#rare-glow)"/>
    <path d="M2 30 L0 32 L2 28 L4 30 Z" fill="#00FFAA" filter="url(#rare-glow)"/>
    <path d="M20 2 L21 0 L22 2 L21 4 Z" fill="#FFFFFF" opacity="0.8" filter="url(#rare-glow)"/>
    <path d="M10 9 C13 7 16 8 14 11" fill="none" stroke="#FFFFFF" stroke-width="2" opacity="0.9" stroke-linecap="round"/>
  </g>
</svg>
